<mxfile host="app.diagrams.net" modified="2024-01-21T08:32:18.957Z" agent="Mozilla/5.0 (X11; Linux x86_64) AppleWebKit/537.36 (KHTML, like Gecko) Chrome/120.0.0.0 Safari/537.36" etag="ET0lkKG61q7d2L8MVZ91" version="22.1.21" type="device">
  <diagram name="Page-1" id="6trVdb3DifdvfFGxGSwO">
    <mxGraphModel dx="1921" dy="588" grid="1" gridSize="10" guides="1" tooltips="1" connect="1" arrows="1" fold="1" page="1" pageScale="1" pageWidth="827" pageHeight="1169" math="0" shadow="0">
      <root>
        <mxCell id="0" />
        <mxCell id="1" parent="0" />
        <mxCell id="dpIG3LyiFP0mH_Nz3NEO-1" value="BaseX" style="shape=cylinder3;whiteSpace=wrap;html=1;boundedLbl=1;backgroundOutline=1;size=15;" vertex="1" parent="1">
          <mxGeometry x="130" y="165" width="90" height="115" as="geometry" />
        </mxCell>
        <mxCell id="dpIG3LyiFP0mH_Nz3NEO-2" value="machine N" style="whiteSpace=wrap;html=1;aspect=fixed;" vertex="1" parent="1">
          <mxGeometry x="360" y="152" width="80" height="80" as="geometry" />
        </mxCell>
        <mxCell id="dpIG3LyiFP0mH_Nz3NEO-3" value="machine 1" style="whiteSpace=wrap;html=1;aspect=fixed;" vertex="1" parent="1">
          <mxGeometry x="470" y="62" width="80" height="80" as="geometry" />
        </mxCell>
        <mxCell id="dpIG3LyiFP0mH_Nz3NEO-4" value="machine 2" style="whiteSpace=wrap;html=1;aspect=fixed;" vertex="1" parent="1">
          <mxGeometry x="580" y="152" width="80" height="80" as="geometry" />
        </mxCell>
        <mxCell id="dpIG3LyiFP0mH_Nz3NEO-5" value="machine 4" style="whiteSpace=wrap;html=1;aspect=fixed;" vertex="1" parent="1">
          <mxGeometry x="400" y="280" width="80" height="80" as="geometry" />
        </mxCell>
        <mxCell id="dpIG3LyiFP0mH_Nz3NEO-6" value="machine 3" style="whiteSpace=wrap;html=1;aspect=fixed;" vertex="1" parent="1">
          <mxGeometry x="540" y="280" width="80" height="80" as="geometry" />
        </mxCell>
        <mxCell id="dpIG3LyiFP0mH_Nz3NEO-7" value="" style="endArrow=classic;startArrow=classic;html=1;rounded=0;entryX=0.5;entryY=1;entryDx=0;entryDy=0;exitX=0.5;exitY=0;exitDx=0;exitDy=0;" edge="1" parent="1" source="dpIG3LyiFP0mH_Nz3NEO-5" target="dpIG3LyiFP0mH_Nz3NEO-2">
          <mxGeometry width="50" height="50" relative="1" as="geometry">
            <mxPoint x="390" y="330" as="sourcePoint" />
            <mxPoint x="440" y="280" as="targetPoint" />
          </mxGeometry>
        </mxCell>
        <mxCell id="dpIG3LyiFP0mH_Nz3NEO-8" value="" style="endArrow=classic;startArrow=classic;html=1;rounded=0;entryX=0.5;entryY=0;entryDx=0;entryDy=0;exitX=0;exitY=0.5;exitDx=0;exitDy=0;" edge="1" parent="1" source="dpIG3LyiFP0mH_Nz3NEO-3" target="dpIG3LyiFP0mH_Nz3NEO-2">
          <mxGeometry width="50" height="50" relative="1" as="geometry">
            <mxPoint x="439" y="118" as="sourcePoint" />
            <mxPoint x="389" y="70" as="targetPoint" />
          </mxGeometry>
        </mxCell>
        <mxCell id="dpIG3LyiFP0mH_Nz3NEO-9" value="" style="endArrow=classic;startArrow=classic;html=1;rounded=0;entryX=1;entryY=0.5;entryDx=0;entryDy=0;exitX=0.5;exitY=0;exitDx=0;exitDy=0;" edge="1" parent="1" source="dpIG3LyiFP0mH_Nz3NEO-4" target="dpIG3LyiFP0mH_Nz3NEO-3">
          <mxGeometry width="50" height="50" relative="1" as="geometry">
            <mxPoint x="645" y="128" as="sourcePoint" />
            <mxPoint x="595" y="80" as="targetPoint" />
          </mxGeometry>
        </mxCell>
        <mxCell id="dpIG3LyiFP0mH_Nz3NEO-10" value="" style="endArrow=classic;startArrow=classic;html=1;rounded=0;entryX=0.5;entryY=0;entryDx=0;entryDy=0;exitX=0.5;exitY=1;exitDx=0;exitDy=0;" edge="1" parent="1" source="dpIG3LyiFP0mH_Nz3NEO-4" target="dpIG3LyiFP0mH_Nz3NEO-6">
          <mxGeometry width="50" height="50" relative="1" as="geometry">
            <mxPoint x="480" y="310" as="sourcePoint" />
            <mxPoint x="430" y="262" as="targetPoint" />
          </mxGeometry>
        </mxCell>
        <mxCell id="dpIG3LyiFP0mH_Nz3NEO-11" value="" style="endArrow=classic;startArrow=classic;html=1;rounded=0;entryX=1;entryY=0.5;entryDx=0;entryDy=0;exitX=0;exitY=0.5;exitDx=0;exitDy=0;" edge="1" parent="1" source="dpIG3LyiFP0mH_Nz3NEO-6" target="dpIG3LyiFP0mH_Nz3NEO-5">
          <mxGeometry width="50" height="50" relative="1" as="geometry">
            <mxPoint x="490" y="320" as="sourcePoint" />
            <mxPoint x="440" y="272" as="targetPoint" />
          </mxGeometry>
        </mxCell>
        <mxCell id="dpIG3LyiFP0mH_Nz3NEO-12" value="Kademlia DHT" style="swimlane;whiteSpace=wrap;html=1;" vertex="1" parent="1">
          <mxGeometry x="340" y="20" width="350" height="370" as="geometry" />
        </mxCell>
        <mxCell id="dpIG3LyiFP0mH_Nz3NEO-13" value="" style="curved=1;endArrow=classic;html=1;rounded=0;exitX=0;exitY=0.5;exitDx=0;exitDy=0;entryX=1;entryY=0.5;entryDx=0;entryDy=0;entryPerimeter=0;" edge="1" parent="1" source="dpIG3LyiFP0mH_Nz3NEO-2" target="dpIG3LyiFP0mH_Nz3NEO-1">
          <mxGeometry width="50" height="50" relative="1" as="geometry">
            <mxPoint x="280" y="222" as="sourcePoint" />
            <mxPoint x="360" y="310" as="targetPoint" />
            <Array as="points">
              <mxPoint x="330" y="210" />
              <mxPoint x="300" y="200" />
            </Array>
          </mxGeometry>
        </mxCell>
        <mxCell id="dpIG3LyiFP0mH_Nz3NEO-14" value="" style="curved=1;endArrow=classic;html=1;rounded=0;entryX=1;entryY=0.5;entryDx=0;entryDy=0;entryPerimeter=0;exitX=0;exitY=0.5;exitDx=0;exitDy=0;" edge="1" parent="1" source="dpIG3LyiFP0mH_Nz3NEO-5" target="dpIG3LyiFP0mH_Nz3NEO-1">
          <mxGeometry width="50" height="50" relative="1" as="geometry">
            <mxPoint x="230" y="350" as="sourcePoint" />
            <mxPoint x="280" y="300" as="targetPoint" />
            <Array as="points">
              <mxPoint x="350" y="330" />
              <mxPoint x="300" y="280" />
            </Array>
          </mxGeometry>
        </mxCell>
        <mxCell id="dpIG3LyiFP0mH_Nz3NEO-15" value="" style="curved=1;endArrow=classic;html=1;rounded=0;entryX=1;entryY=0.5;entryDx=0;entryDy=0;entryPerimeter=0;exitX=0.5;exitY=0;exitDx=0;exitDy=0;" edge="1" parent="1" source="dpIG3LyiFP0mH_Nz3NEO-3" target="dpIG3LyiFP0mH_Nz3NEO-1">
          <mxGeometry width="50" height="50" relative="1" as="geometry">
            <mxPoint x="390" y="330" as="sourcePoint" />
            <mxPoint x="440" y="280" as="targetPoint" />
            <Array as="points">
              <mxPoint x="360" y="20" />
              <mxPoint x="330" y="170" />
            </Array>
          </mxGeometry>
        </mxCell>
        <mxCell id="dpIG3LyiFP0mH_Nz3NEO-16" value="" style="curved=1;endArrow=classic;html=1;rounded=0;entryX=1;entryY=0.5;entryDx=0;entryDy=0;entryPerimeter=0;exitX=0.5;exitY=1;exitDx=0;exitDy=0;" edge="1" parent="1" source="dpIG3LyiFP0mH_Nz3NEO-6" target="dpIG3LyiFP0mH_Nz3NEO-1">
          <mxGeometry width="50" height="50" relative="1" as="geometry">
            <mxPoint x="390" y="330" as="sourcePoint" />
            <mxPoint x="440" y="280" as="targetPoint" />
            <Array as="points">
              <mxPoint x="550" y="420" />
              <mxPoint x="300" y="390" />
            </Array>
          </mxGeometry>
        </mxCell>
        <mxCell id="dpIG3LyiFP0mH_Nz3NEO-17" value="" style="curved=1;endArrow=classic;html=1;rounded=0;exitX=0;exitY=0.5;exitDx=0;exitDy=0;entryX=1;entryY=0.5;entryDx=0;entryDy=0;entryPerimeter=0;" edge="1" parent="1" source="dpIG3LyiFP0mH_Nz3NEO-4" target="dpIG3LyiFP0mH_Nz3NEO-1">
          <mxGeometry width="50" height="50" relative="1" as="geometry">
            <mxPoint x="390" y="330" as="sourcePoint" />
            <mxPoint x="440" y="280" as="targetPoint" />
            <Array as="points">
              <mxPoint x="490" y="240" />
              <mxPoint x="390" y="280" />
            </Array>
          </mxGeometry>
        </mxCell>
        <mxCell id="dpIG3LyiFP0mH_Nz3NEO-18" value="Writing records every 10 seconds" style="text;strokeColor=none;fillColor=none;align=left;verticalAlign=middle;spacingLeft=4;spacingRight=4;overflow=hidden;points=[[0,0.5],[1,0.5]];portConstraint=eastwest;rotatable=0;whiteSpace=wrap;html=1;" vertex="1" parent="1">
          <mxGeometry x="230" y="112" width="80" height="68" as="geometry" />
        </mxCell>
        <mxCell id="dpIG3LyiFP0mH_Nz3NEO-19" value="&lt;div&gt;&amp;lt;record&amp;gt;&lt;/div&gt;&lt;div&gt;&amp;nbsp; &amp;lt;cpus&amp;gt;...&amp;lt;/cpus&amp;gt;&lt;/div&gt;&lt;div&gt;&amp;nbsp; &amp;lt;ram .../&amp;gt;&lt;/div&gt;&lt;div&gt;&amp;nbsp; &amp;lt;disks&amp;gt;...&amp;lt;/disks&amp;gt;&lt;/div&gt;&lt;div&gt;&amp;nbsp; &amp;lt;networks&amp;gt;...&amp;lt;/networks&amp;gt;&lt;span data-darkreader-inline-color=&quot;&quot; data-darkreader-inline-bgcolor=&quot;&quot; style=&quot;background-color: initial; color: rgb(0, 0, 0); --darkreader-inline-bgcolor: initial; --darkreader-inline-color: #e8e6e3;&quot;&gt;&amp;lt;/record&amp;gt;&lt;/span&gt;&lt;/div&gt;" style="shape=note;whiteSpace=wrap;html=1;backgroundOutline=1;darkOpacity=0.05;align=left;" vertex="1" parent="1">
          <mxGeometry x="126" y="368" width="150" height="110" as="geometry" />
        </mxCell>
        <mxCell id="dpIG3LyiFP0mH_Nz3NEO-20" value="Record example" style="text;html=1;strokeColor=none;fillColor=none;align=center;verticalAlign=middle;whiteSpace=wrap;rounded=0;" vertex="1" parent="1">
          <mxGeometry x="151" y="338" width="100" height="30" as="geometry" />
        </mxCell>
        <mxCell id="dpIG3LyiFP0mH_Nz3NEO-22" value="XForms" style="ellipse;whiteSpace=wrap;html=1;aspect=fixed;" vertex="1" parent="1">
          <mxGeometry x="-70" y="182.5" width="80" height="80" as="geometry" />
        </mxCell>
        <mxCell id="dpIG3LyiFP0mH_Nz3NEO-23" value="" style="shape=flexArrow;endArrow=classic;startArrow=classic;html=1;rounded=0;exitX=1;exitY=0.5;exitDx=0;exitDy=0;entryX=0;entryY=0.5;entryDx=0;entryDy=0;entryPerimeter=0;" edge="1" parent="1" source="dpIG3LyiFP0mH_Nz3NEO-22" target="dpIG3LyiFP0mH_Nz3NEO-1">
          <mxGeometry width="100" height="100" relative="1" as="geometry">
            <mxPoint x="30" y="152" as="sourcePoint" />
            <mxPoint x="130" y="52" as="targetPoint" />
          </mxGeometry>
        </mxCell>
        <mxCell id="dpIG3LyiFP0mH_Nz3NEO-24" value="CRUDS for DHT configuration" style="text;html=1;strokeColor=none;fillColor=none;align=center;verticalAlign=middle;whiteSpace=wrap;rounded=0;" vertex="1" parent="1">
          <mxGeometry x="40" y="165" width="60" height="30" as="geometry" />
        </mxCell>
        <mxCell id="dpIG3LyiFP0mH_Nz3NEO-25" value="REST API" style="ellipse;shape=cloud;whiteSpace=wrap;html=1;" vertex="1" parent="1">
          <mxGeometry x="10" y="50" width="120" height="80" as="geometry" />
        </mxCell>
        <mxCell id="dpIG3LyiFP0mH_Nz3NEO-26" value="" style="endArrow=classic;html=1;rounded=0;exitX=0.875;exitY=0.5;exitDx=0;exitDy=0;exitPerimeter=0;entryX=0;entryY=0;entryDx=0;entryDy=0;" edge="1" parent="1" source="dpIG3LyiFP0mH_Nz3NEO-25" target="dpIG3LyiFP0mH_Nz3NEO-12">
          <mxGeometry width="50" height="50" relative="1" as="geometry">
            <mxPoint x="370" y="170" as="sourcePoint" />
            <mxPoint x="420" y="120" as="targetPoint" />
          </mxGeometry>
        </mxCell>
        <mxCell id="dpIG3LyiFP0mH_Nz3NEO-27" value="Launch / stop machines" style="text;html=1;strokeColor=none;fillColor=none;align=center;verticalAlign=middle;whiteSpace=wrap;rounded=0;" vertex="1" parent="1">
          <mxGeometry x="140" y="20" width="100" height="30" as="geometry" />
        </mxCell>
        <mxCell id="dpIG3LyiFP0mH_Nz3NEO-29" value="" style="endArrow=classic;startArrow=classic;html=1;rounded=0;exitX=0.5;exitY=0;exitDx=0;exitDy=0;entryX=0.13;entryY=0.77;entryDx=0;entryDy=0;entryPerimeter=0;" edge="1" parent="1" source="dpIG3LyiFP0mH_Nz3NEO-22" target="dpIG3LyiFP0mH_Nz3NEO-25">
          <mxGeometry width="50" height="50" relative="1" as="geometry">
            <mxPoint x="370" y="170" as="sourcePoint" />
            <mxPoint x="420" y="120" as="targetPoint" />
          </mxGeometry>
        </mxCell>
        <mxCell id="dpIG3LyiFP0mH_Nz3NEO-30" value="&lt;div&gt;&amp;lt;fleet&amp;gt;&lt;/div&gt;&lt;div&gt;&amp;nbsp; &amp;nbsp; &amp;lt;machine seed=&quot;42&quot;&amp;gt;&lt;/div&gt;&lt;div&gt;&amp;nbsp; &amp;nbsp; &amp;nbsp; &amp;nbsp; &amp;lt;data key=&quot;matrix1&quot;&amp;gt;&lt;/div&gt;&lt;div&gt;&amp;nbsp; &amp;nbsp; &amp;nbsp; &amp;nbsp; &amp;nbsp; &amp;nbsp; &amp;lt;![CDATA[ ... ]]&amp;gt;&lt;/div&gt;&lt;div&gt;&amp;nbsp; &amp;nbsp; &amp;nbsp; &amp;nbsp; &amp;lt;/data&amp;gt;&lt;/div&gt;&lt;div&gt;&amp;nbsp; &amp;nbsp; &amp;nbsp; &amp;nbsp; &amp;lt;data key=&quot;matrix1&quot;&amp;gt;&lt;/div&gt;&lt;div&gt;&amp;nbsp; &amp;nbsp; &amp;nbsp; &amp;nbsp; &amp;nbsp; &amp;nbsp; &amp;lt;![CDATA[ ... ]]&amp;gt;&lt;/div&gt;&lt;div&gt;&amp;nbsp; &amp;nbsp; &amp;nbsp; &amp;nbsp; &amp;lt;/data&amp;gt;&lt;/div&gt;&lt;div&gt;&amp;nbsp; &amp;nbsp; &amp;lt;/machine&amp;gt;&lt;/div&gt;&lt;div&gt;&amp;nbsp; &amp;nbsp; ...&lt;/div&gt;&lt;div&gt;&amp;lt;/fleet&amp;gt;&lt;/div&gt;" style="shape=note;whiteSpace=wrap;html=1;backgroundOutline=1;darkOpacity=0.05;align=left;" vertex="1" parent="1">
          <mxGeometry x="-70" y="310" width="150" height="170" as="geometry" />
        </mxCell>
        <mxCell id="dpIG3LyiFP0mH_Nz3NEO-33" value="DHT config example" style="text;html=1;strokeColor=none;fillColor=none;align=center;verticalAlign=middle;whiteSpace=wrap;rounded=0;" vertex="1" parent="1">
          <mxGeometry x="-55" y="280" width="120" height="30" as="geometry" />
        </mxCell>
        <mxCell id="dpIG3LyiFP0mH_Nz3NEO-34" value="" style="endArrow=classic;html=1;rounded=0;exitX=0.96;exitY=0.7;exitDx=0;exitDy=0;exitPerimeter=0;entryX=0.5;entryY=0;entryDx=0;entryDy=0;entryPerimeter=0;" edge="1" parent="1" source="dpIG3LyiFP0mH_Nz3NEO-25" target="dpIG3LyiFP0mH_Nz3NEO-1">
          <mxGeometry width="50" height="50" relative="1" as="geometry">
            <mxPoint x="360" y="260" as="sourcePoint" />
            <mxPoint x="410" y="210" as="targetPoint" />
          </mxGeometry>
        </mxCell>
        <mxCell id="dpIG3LyiFP0mH_Nz3NEO-35" value="Reads config" style="text;html=1;strokeColor=none;fillColor=none;align=center;verticalAlign=middle;whiteSpace=wrap;rounded=0;" vertex="1" parent="1">
          <mxGeometry x="130" y="100" width="60" height="30" as="geometry" />
        </mxCell>
      </root>
    </mxGraphModel>
  </diagram>
</mxfile>
